<svg width="13" height="13" viewBox="0 0 13 13" fill="none" xmlns="http://www.w3.org/2000/svg">
<path d="M10.625 2.8125C10.625 3.33027 10.2053 3.75 9.6875 3.75C9.16973 3.75 8.75 3.33027 8.75 2.8125C8.75 2.29473 9.16973 1.875 9.6875 1.875C10.2053 1.875 10.625 2.29473 10.625 2.8125Z" fill="#666666"/>
<path fill-rule="evenodd" clip-rule="evenodd" d="M6.25 9.375C7.97589 9.375 9.375 7.97589 9.375 6.25C9.375 4.52411 7.97589 3.125 6.25 3.125C4.52411 3.125 3.125 4.52411 3.125 6.25C3.125 7.97589 4.52411 9.375 6.25 9.375ZM6.25 8.125C7.28553 8.125 8.125 7.28553 8.125 6.25C8.125 5.21447 7.28553 4.375 6.25 4.375C5.21447 4.375 4.375 5.21447 4.375 6.25C4.375 7.28553 5.21447 8.125 6.25 8.125Z" fill="#666666"/>
<path fill-rule="evenodd" clip-rule="evenodd" d="M0 6C0 3.8998 0 2.8497 0.408726 2.04754C0.768251 1.34193 1.34193 0.768251 2.04754 0.408726C2.8497 0 3.8998 0 6 0H6.5C8.6002 0 9.6503 0 10.4525 0.408726C11.1581 0.768251 11.7317 1.34193 12.0913 2.04754C12.5 2.8497 12.5 3.8998 12.5 6V6.5C12.5 8.6002 12.5 9.6503 12.0913 10.4525C11.7317 11.1581 11.1581 11.7317 10.4525 12.0913C9.6503 12.5 8.6002 12.5 6.5 12.5H6C3.8998 12.5 2.8497 12.5 2.04754 12.0913C1.34193 11.7317 0.768251 11.1581 0.408726 10.4525C0 9.6503 0 8.6002 0 6.5V6ZM6 1.25H6.5C7.57072 1.25 8.29859 1.25097 8.8612 1.29694C9.40922 1.34171 9.68948 1.42287 9.88498 1.52248C10.3554 1.76217 10.7378 2.14462 10.9775 2.61502C11.0771 2.81052 11.1583 3.09078 11.2031 3.6388C11.249 4.20141 11.25 4.92928 11.25 6V6.5C11.25 7.57072 11.249 8.29859 11.2031 8.8612C11.1583 9.40922 11.0771 9.68948 10.9775 9.88498C10.7378 10.3554 10.3554 10.7378 9.88498 10.9775C9.68948 11.0771 9.40922 11.1583 8.8612 11.2031C8.29859 11.249 7.57072 11.25 6.5 11.25H6C4.92928 11.25 4.20141 11.249 3.6388 11.2031C3.09078 11.1583 2.81052 11.0771 2.61502 10.9775C2.14462 10.7378 1.76217 10.3554 1.52248 9.88498C1.42287 9.68948 1.34171 9.40922 1.29694 8.8612C1.25097 8.29859 1.25 7.57072 1.25 6.5V6C1.25 4.92928 1.25097 4.20141 1.29694 3.6388C1.34171 3.09078 1.42287 2.81052 1.52248 2.61502C1.76217 2.14462 2.14462 1.76217 2.61502 1.52248C2.81052 1.42287 3.09078 1.34171 3.6388 1.29694C4.20141 1.25097 4.92928 1.25 6 1.25Z" fill="#666666"/>
</svg>
