<svg width="18" height="15" viewBox="0 0 18 15" fill="none" xmlns="http://www.w3.org/2000/svg">
<path d="M5.49296 14.375C3.47109 14.375 1.58636 13.7869 0 12.7723C1.34687 12.8594 3.72379 12.6507 5.20224 11.2405C2.97817 11.1384 1.97516 9.43268 1.84434 8.70373C2.03331 8.77662 2.93456 8.8641 3.44334 8.65999C0.884936 8.01851 0.492455 5.77333 0.579673 5.08811C1.05937 5.42343 1.87341 5.54006 2.19321 5.5109C-0.190754 3.80515 0.666891 1.23922 1.08845 0.685218C2.79927 3.05542 5.36325 4.38661 8.53524 4.46065C8.47543 4.19835 8.44385 3.92526 8.44385 3.64478C8.44385 1.63182 10.0709 0 12.0779 0C13.1266 0 14.0715 0.445471 14.7348 1.15802C15.4356 0.993816 16.4902 0.609417 17.0058 0.277003C16.7459 1.21007 15.9368 1.98843 15.4474 2.27692C15.4515 2.28674 15.4435 2.26707 15.4474 2.27692C15.8773 2.2119 17.0405 1.98836 17.5 1.6766C17.2728 2.20078 16.415 3.07233 15.7111 3.56026C15.842 9.33629 11.4228 14.375 5.49296 14.375Z" fill="#666666"/>
</svg>
