<svg width="84" height="44" viewBox="0 0 84 44" fill="none" xmlns="http://www.w3.org/2000/svg">
<g clip-path="url(#clip0_2077_5506)">
<path d="M19.4416 26.2783C18.1851 23.0746 16.9559 19.9254 15.6994 16.7108C15.5471 17.1296 15.4166 17.4832 15.2861 17.8367C13.9644 21.481 12.6426 25.1198 11.5385 28.8347C11.3046 29.6234 11.1251 30.4284 10.913 31.2225C10.8423 31.4836 10.913 31.6576 11.1251 31.8262C11.9845 32.5224 12.9853 32.8977 14.0459 33.1479C15.6505 33.5287 17.217 33.2948 18.7726 32.8705C21.3398 32.1689 23.5101 30.8526 25.1037 28.677C26.2949 27.0506 26.9313 25.2068 27.1543 23.2215C27.448 20.5944 27.0129 18.0978 25.6368 15.8242C23.6134 12.4792 20.6436 10.5156 16.7546 10.0805C10.3528 9.37341 4.58182 13.8172 3.54294 20.1864C3.04798 23.2378 3.61909 26.0988 5.19645 28.7531C5.23996 28.8293 5.29435 28.9054 5.33786 28.987C5.49016 29.2753 5.41401 29.5907 5.15293 29.7539C4.90273 29.9116 4.58726 29.8681 4.40233 29.6125C4.08686 29.1719 3.77139 28.7259 3.49943 28.2581C0.181551 22.4872 1.45975 15.1607 6.53448 10.8039C14.4756 3.98865 26.8769 7.70359 29.7542 17.8041C31.0487 22.3567 30.4178 26.6917 27.6819 30.6079C25.7401 33.3927 23.0097 35.1115 19.7679 36.0307C18.2014 36.4767 16.6078 36.7704 14.9652 36.629C12.697 36.4332 10.6138 35.7533 8.83524 34.2521C7.67126 33.273 7.29596 32.0982 7.64406 30.6133C8.12271 28.5519 8.75909 26.5448 9.44442 24.5486C10.9076 20.2952 12.5175 16.0908 14.2091 11.9244C14.492 11.2227 15.0359 10.8583 15.7375 10.8855C16.4065 10.9127 16.9178 11.3424 17.1408 12.0549C18.9412 17.8476 20.7415 23.6403 22.5419 29.433C22.5745 29.5472 22.6126 29.656 22.6507 29.7702C22.7975 30.2217 22.618 30.6568 22.2155 30.8472C21.8022 31.043 21.3453 30.8853 21.0951 30.4773C20.2955 29.1719 19.2947 28.046 18.0492 27.1486C16.858 26.2946 15.5526 25.8051 14.0568 25.9139C13.638 25.9465 13.3552 25.7181 13.328 25.3536C13.3008 24.9729 13.5401 24.7173 13.9698 24.6629C15.5907 24.4671 17.081 24.8696 18.4734 25.6745C18.7943 25.854 19.0826 26.0498 19.4416 26.2783Z" fill="#0D0D0D"/>
</g>
<path d="M71.5049 27.4699L75.352 22.1521L71.5828 16.9512H74.3488L76.7156 20.3113L79.0433 16.9512H81.8094L78.0401 22.1521L81.9068 27.4699H79.1407L76.7156 23.9929L74.2709 27.4699H71.5049Z" fill="#0D0D0D"/>
<path d="M66.1185 27.7618C65.0536 27.7618 64.1186 27.5313 63.3135 27.0703C62.5083 26.6093 61.8785 25.9697 61.424 25.1516C60.976 24.3335 60.752 23.392 60.752 22.3271C60.752 21.1779 60.9727 20.1812 61.4142 19.3371C61.8558 18.4865 62.4694 17.8274 63.255 17.3599C64.0407 16.8924 64.9497 16.6587 65.9821 16.6587C67.0729 16.6587 67.9982 16.9152 68.7579 17.4281C69.5241 17.9346 70.0922 18.6521 70.4623 19.5806C70.8324 20.5091 70.972 21.6032 70.8811 22.8628H68.5534V22.0057C68.5469 20.8629 68.3456 20.0286 67.9495 19.5026C67.5534 18.9767 66.9301 18.7137 66.0795 18.7137C65.1185 18.7137 64.4043 19.0124 63.9368 19.6098C63.4693 20.2007 63.2355 21.0675 63.2355 22.2103C63.2355 23.2751 63.4693 24.0997 63.9368 24.6841C64.4043 25.2685 65.0861 25.5607 65.9821 25.5607C66.56 25.5607 67.0567 25.4341 67.4723 25.1808C67.8943 24.9211 68.219 24.5478 68.4462 24.0608L70.7642 24.762C70.3617 25.71 69.7383 26.447 68.8942 26.9729C68.0566 27.4988 67.1314 27.7618 66.1185 27.7618ZM62.4953 22.8628V21.0902H69.7319V22.8628H62.4953Z" fill="#0D0D0D"/>
<path d="M54.3878 27.7618C53.3619 27.7618 52.5016 27.5183 51.8068 27.0313C51.1121 26.5444 50.5894 25.8821 50.2387 25.0445C49.8881 24.2004 49.7128 23.2556 49.7128 22.2103C49.7128 21.1519 49.8881 20.2039 50.2387 19.3663C50.5894 18.5287 51.1023 17.8696 51.7776 17.3892C52.4594 16.9022 53.3002 16.6587 54.3001 16.6587C55.2936 16.6587 56.1539 16.9022 56.8811 17.3892C57.6148 17.8696 58.183 18.5287 58.5856 19.3663C58.9881 20.1974 59.1894 21.1454 59.1894 22.2103C59.1894 23.2621 58.9914 24.2069 58.5953 25.0445C58.1992 25.8821 57.6408 26.5444 56.9201 27.0313C56.1994 27.5183 55.3553 27.7618 54.3878 27.7618ZM49.3135 32.1446V16.9509H51.388V24.3335H51.6802V32.1446H49.3135ZM54.0274 25.6581C54.6378 25.6581 55.141 25.5055 55.5371 25.2003C55.9331 24.8951 56.2253 24.4828 56.4136 23.9634C56.6084 23.4374 56.7058 22.8531 56.7058 22.2103C56.7058 21.5739 56.6084 20.9961 56.4136 20.4766C56.2188 19.9507 55.9169 19.5351 55.5079 19.2299C55.0988 18.9183 54.5793 18.7624 53.9495 18.7624C53.3522 18.7624 52.8652 18.9085 52.4886 19.2007C52.112 19.4864 51.8328 19.889 51.651 20.4084C51.4757 20.9214 51.388 21.522 51.388 22.2103C51.388 22.892 51.4757 23.4926 51.651 24.0121C51.8328 24.5315 52.1152 24.9373 52.4983 25.2295C52.8879 25.5152 53.3976 25.6581 54.0274 25.6581Z" fill="#0D0D0D"/>
<path d="M35.2905 27.4698L39.7123 13.4448H43.1504L47.5721 27.4698H45.1567L41.144 14.8863H41.67L37.7059 27.4698H35.2905ZM37.7546 24.4311V22.2397H45.1178V24.4311H37.7546Z" fill="#0D0D0D"/>
<defs>
<clipPath id="clip0_2077_5506">
<rect width="28.735" height="29.3333" fill="white" transform="translate(1.6665 7.3335)"/>
</clipPath>
</defs>
</svg>
