<svg width="105" height="44" viewBox="0 0 105 44" fill="none" xmlns="http://www.w3.org/2000/svg">
<g clip-path="url(#clip0_2077_5426)">
<path d="M15.5488 36.9202C15.5051 36.9578 15.4332 36.9186 15.4324 36.8609C15.2785 26.8184 8.7928 17.98 -0.640106 17.4919C-0.786645 17.4843 -0.879978 17.3101 -0.785573 17.1977C2.01116 13.8699 4.80789 10.542 7.5977 7.20596C7.75692 7.0165 7.89537 6.95884 8.10997 7.02474C15.4687 9.28174 20.7299 14.3806 23.4366 22.9473C23.7758 24.0181 23.9766 25.1549 24.2258 26.2669C24.2535 26.3905 24.2119 26.6046 24.1358 26.6952C21.2778 30.1042 18.4199 33.5131 15.555 36.9138C15.5529 36.9164 15.5514 36.918 15.5488 36.9202Z" fill="#0D0D0D"/>
<path d="M-0.875488 21.9999C-0.190151 21.1433 0.495187 20.2619 1.21514 19.4134C1.31898 19.2899 1.58204 19.2981 1.7551 19.3393C3.30576 19.6853 4.77335 20.3442 6.15787 21.2421C10.3668 24.0016 12.8936 28.2273 13.8835 33.7956C13.9389 34.1087 13.8904 34.3228 13.6966 34.5617C13.032 35.336 12.3882 36.1433 11.7306 36.9423C11.7167 36.9587 11.696 36.967 11.6475 36.9999C11.5021 32.9225 10.436 29.2981 7.95083 26.4151C5.47946 23.5485 2.46121 22.2059 -0.875488 21.9999Z" fill="#0D0D0D"/>
<path d="M7.82632 36.9833C7.64633 30.2041 3.07741 26.6209 -1 26.522C-0.889238 26.382 -0.820012 26.2749 -0.736941 26.1761C-0.169288 25.5171 0.412211 24.8664 0.966019 24.1827C1.19447 23.8944 1.40907 23.8285 1.72058 23.9355C5.82569 25.3112 8.56704 28.3672 9.89618 33.2189C10.1039 33.9932 10.0623 34.5286 9.50851 35.064C8.91317 35.6324 8.39397 36.3243 7.82632 36.9833Z" fill="#0D0D0D"/>
<path d="M4.03256 36.9178C3.85949 33.4664 1.72041 31.2423 -0.986328 31.0282C-0.910179 30.9211 -0.847876 30.8305 -0.785573 30.7481C-0.190229 30.0562 0.405115 29.3725 0.993536 28.6723C1.14583 28.4829 1.27736 28.4582 1.47812 28.5488C3.79027 29.5455 5.2994 31.4812 6.15088 34.183C6.18549 34.2819 6.17164 34.4713 6.11626 34.5372C5.41708 35.3445 4.7179 36.1353 4.03256 36.9178Z" fill="#0D0D0D"/>
</g>
<path d="M101.448 29.1957V23.0331C101.448 22.338 101.303 21.7963 101.014 21.408C100.724 21.0134 100.332 20.8161 99.8373 20.8161C99.532 20.8161 99.2583 20.9007 99.0162 21.0698C98.7741 21.2326 98.582 21.4769 98.4399 21.8025C98.2978 22.1219 98.2267 22.5039 98.2267 22.9486L97.382 22.3568C97.3767 21.6553 97.5083 21.0385 97.7767 20.5061C98.0504 19.9675 98.4188 19.5479 98.882 19.2473C99.3452 18.9467 99.861 18.7964 100.429 18.7964C101.372 18.7964 102.093 19.1346 102.593 19.811C103.098 20.4811 103.351 21.3641 103.351 22.4601V29.1957H101.448ZM91.1924 29.1957V19.05H92.874V22.1971H93.1108V29.1957H91.1924ZM96.3319 29.1957V23.0613C96.3319 22.3536 96.1872 21.8025 95.8977 21.408C95.6083 21.0134 95.2135 20.8161 94.7135 20.8161C94.2293 20.8161 93.8398 21.0134 93.5451 21.408C93.2556 21.8025 93.1108 22.3161 93.1108 22.9486L92.2582 22.2722C92.2582 21.6146 92.395 21.0228 92.6687 20.4967C92.9424 19.9707 93.3108 19.5573 93.774 19.2567C94.2424 18.9498 94.7661 18.7964 95.3451 18.7964C95.9819 18.7964 96.5135 18.9592 96.9399 19.2849C97.3714 19.6043 97.6925 20.0427 97.903 20.6001C98.1188 21.1512 98.2267 21.7743 98.2267 22.4695V29.1957H96.3319Z" fill="#0D0D0D"/>
<path d="M84.5218 29.4872C83.8902 29.4872 83.3692 29.3619 82.9586 29.1114C82.5481 28.8609 82.2218 28.5415 81.9797 28.1532C81.7376 27.7649 81.5586 27.3516 81.4428 26.9132C81.327 26.4748 81.2507 26.0615 81.2139 25.6732C81.1823 25.2786 81.1665 24.9592 81.1665 24.715V19.0503H83.0929V23.9353C83.0929 24.2484 83.1113 24.6022 83.1481 24.9968C83.185 25.3851 83.2692 25.7608 83.4008 26.1241C83.5376 26.4811 83.7376 26.7754 84.0008 27.0071C84.2692 27.2389 84.6297 27.3547 85.0824 27.3547C85.3245 27.3547 85.564 27.3078 85.8008 27.2138C86.0376 27.1199 86.2508 26.9602 86.4403 26.7347C86.635 26.503 86.7903 26.1867 86.9061 25.7859C87.0219 25.3851 87.0798 24.8778 87.0798 24.264L88.2087 24.8371C88.2087 25.7014 88.0666 26.4842 87.7824 27.1856C87.5035 27.8871 87.0903 28.4476 86.5429 28.8672C85.9955 29.2805 85.3218 29.4872 84.5218 29.4872ZM87.3087 29.196V26.0489H87.0798V19.0503H88.9903V29.196H87.3087Z" fill="#0D0D0D"/>
<path d="M75.0176 29.1958V19.0501H76.6992V21.5208L76.4939 21.2014C76.5992 20.8632 76.7387 20.5563 76.9123 20.2807C77.0913 19.9989 77.3045 19.7672 77.5518 19.5856C77.7624 19.4165 77.9939 19.285 78.2466 19.191C78.5045 19.0908 78.7676 19.0313 79.0361 19.0125C79.3045 18.9875 79.565 19 79.8177 19.0501V21.1638C79.565 21.0761 79.2729 21.0479 78.9413 21.0792C78.615 21.1106 78.3203 21.2202 78.0571 21.408C77.7939 21.5771 77.5782 21.7932 77.4097 22.0562C77.2466 22.3193 77.1255 22.6199 77.0466 22.9581C76.9676 23.29 76.9281 23.6501 76.9281 24.0384V29.1958H75.0176Z" fill="#0D0D0D"/>
<path d="M73.1841 29.1959C72.6209 29.3211 72.0683 29.3744 71.5262 29.3556C70.9893 29.343 70.5077 29.2272 70.0814 29.008C69.6551 28.7825 69.3314 28.4287 69.1103 27.9464C68.9156 27.508 68.813 27.0603 68.8024 26.6031C68.7919 26.1459 68.7867 25.6292 68.7867 25.053V16.2319H70.6814V24.9215C70.6814 25.3286 70.6841 25.6856 70.6893 25.9925C70.6998 26.2993 70.7551 26.5498 70.8551 26.744C71.0446 27.1198 71.3472 27.3296 71.763 27.3734C72.1788 27.4172 72.6525 27.3922 73.1841 27.2982V29.1959ZM67.2393 20.8257V19.0502H73.1841V20.8257H67.2393Z" fill="#0D0D0D"/>
<path d="M62.8073 29.4779C61.9283 29.4779 61.1783 29.2462 60.5572 28.7827C59.9361 28.313 59.4598 27.6742 59.1282 26.8663C58.8019 26.0584 58.6361 25.1441 58.6309 24.1232C58.6361 23.0836 58.8072 22.163 59.144 21.3613C59.4861 20.5534 59.9704 19.9209 60.5967 19.4637C61.223 19.0003 61.9678 18.7686 62.8309 18.7686C63.7994 18.7686 64.6178 19.0598 65.2862 19.6422C65.9599 20.2184 66.3994 21.0075 66.6047 22.0095L64.7099 22.6202C64.5625 22.0753 64.3178 21.6526 63.9757 21.3519C63.6336 21.0451 63.2441 20.8916 62.8073 20.8916C62.3125 20.8916 61.9046 21.0325 61.5835 21.3144C61.2625 21.5899 61.0256 21.972 60.873 22.4605C60.7204 22.949 60.6441 23.5032 60.6441 24.1232C60.6441 25.0877 60.8256 25.8674 61.1888 26.4624C61.552 27.0573 62.0915 27.3548 62.8073 27.3548C63.3125 27.3548 63.7099 27.217 63.9994 26.9415C64.2941 26.6659 64.5152 26.2682 64.6626 25.7484L66.6047 26.2651C66.3415 27.2984 65.881 28.0938 65.2231 28.6512C64.5652 29.2023 63.7599 29.4779 62.8073 29.4779Z" fill="#0D0D0D"/>
<path d="M53.4824 29.4779C52.6192 29.4779 51.8613 29.2556 51.2087 28.8109C50.556 28.3662 50.0455 27.7494 49.6771 26.9603C49.3139 26.1711 49.1323 25.263 49.1323 24.2359C49.1323 23.1274 49.3113 22.1661 49.6692 21.3519C50.0271 20.5315 50.5245 19.8959 51.1613 19.4449C51.7982 18.994 52.535 18.7686 53.3719 18.7686C54.2561 18.7686 55.0061 19.0159 55.6219 19.5107C56.243 19.9992 56.7035 20.6912 57.0035 21.5868C57.3035 22.4824 57.4167 23.5377 57.343 24.7526H55.4561V23.9259C55.4509 22.8237 55.2877 22.0189 54.9666 21.5116C54.6456 21.0044 54.1403 20.7507 53.4508 20.7507C52.6719 20.7507 52.0929 21.0388 51.714 21.615C51.335 22.1849 51.1455 23.021 51.1455 24.1232C51.1455 25.1503 51.335 25.9457 51.714 26.5093C52.0929 27.073 52.6455 27.3548 53.3719 27.3548C53.8403 27.3548 54.2429 27.2327 54.5798 26.9884C54.9219 26.7379 55.1851 26.3778 55.3693 25.9081L57.2483 26.5845C56.9219 27.4989 56.4167 28.2097 55.7324 28.717C55.0535 29.2242 54.3035 29.4779 53.4824 29.4779ZM50.5455 24.7526V23.0429H56.4114V24.7526H50.5455Z" fill="#0D0D0D"/>
<path d="M43.9736 29.4779C43.142 29.4779 42.4446 29.243 41.8814 28.7733C41.3183 28.3036 40.8946 27.6648 40.6104 26.8569C40.3262 26.0428 40.184 25.1315 40.184 24.1232C40.184 23.1024 40.3262 22.188 40.6104 21.3801C40.8946 20.5722 41.3104 19.9366 41.8578 19.4731C42.4104 19.0034 43.092 18.7686 43.9025 18.7686C44.7078 18.7686 45.4052 19.0034 45.9947 19.4731C46.5894 19.9366 47.05 20.5722 47.3763 21.3801C47.7026 22.1818 47.8658 23.0961 47.8658 24.1232C47.8658 25.1378 47.7052 26.049 47.3842 26.8569C47.0631 27.6648 46.6105 28.3036 46.0263 28.7733C45.442 29.243 44.7578 29.4779 43.9736 29.4779ZM39.8604 33.7053V19.0504H41.542V26.1711H41.7788V33.7053H39.8604ZM43.6815 27.4487C44.1762 27.4487 44.5841 27.3016 44.9052 27.0072C45.2262 26.7129 45.4631 26.3152 45.6157 25.8142C45.7736 25.3069 45.8526 24.7432 45.8526 24.1232C45.8526 23.5095 45.7736 22.9521 45.6157 22.4511C45.4578 21.9438 45.2131 21.543 44.8815 21.2486C44.5499 20.948 44.1289 20.7977 43.6183 20.7977C43.1341 20.7977 42.7394 20.9386 42.4341 21.2204C42.1288 21.496 41.9025 21.8843 41.7551 22.3853C41.613 22.8801 41.542 23.4594 41.542 24.1232C41.542 24.7808 41.613 25.3601 41.7551 25.8611C41.9025 26.3622 42.1314 26.7536 42.442 27.0354C42.7578 27.311 43.1709 27.4487 43.6815 27.4487Z" fill="#0D0D0D"/>
<path d="M33.7068 29.4779C32.8752 29.4779 32.1252 29.3057 31.4568 28.9612C30.7936 28.6168 30.2462 28.1251 29.8146 27.4863C29.3883 26.8413 29.1173 26.0772 29.0015 25.1942L30.9752 24.8372C31.1436 25.6388 31.4884 26.2588 32.0094 26.6972C32.5357 27.1356 33.141 27.3548 33.8252 27.3548C34.2305 27.3548 34.6121 27.2797 34.97 27.1294C35.3279 26.9791 35.6174 26.7599 35.8384 26.4718C36.0648 26.1837 36.1779 25.8298 36.1779 25.4102C36.1779 25.2224 36.1516 25.0501 36.099 24.8936C36.0463 24.7307 35.9674 24.5867 35.8621 24.4614C35.7621 24.3362 35.6305 24.2234 35.4674 24.1232C35.3095 24.0168 35.1253 23.926 34.9147 23.8508L31.9778 22.8175C31.7252 22.7298 31.4515 22.6139 31.1568 22.4699C30.8673 22.3196 30.591 22.116 30.3278 21.8593C30.0699 21.5962 29.8567 21.2643 29.6883 20.8635C29.5252 20.4564 29.4436 19.9554 29.4436 19.3604C29.4436 18.4899 29.6278 17.7603 29.9962 17.1716C30.3699 16.5766 30.8699 16.1319 31.4962 15.8376C32.1278 15.5432 32.8278 15.3992 33.5963 15.4055C34.3752 15.4117 35.07 15.5714 35.6805 15.8846C36.2911 16.1914 36.8016 16.6392 37.2121 17.2279C37.6227 17.8166 37.9122 18.5275 38.0806 19.3604L36.0358 19.7831C35.9516 19.3072 35.7884 18.9032 35.5463 18.5713C35.3095 18.2331 35.0174 17.9763 34.67 17.801C34.3279 17.6256 33.9621 17.5317 33.5726 17.5192C33.1936 17.5129 32.841 17.5818 32.5147 17.7258C32.1936 17.8636 31.9331 18.064 31.7331 18.327C31.5384 18.5901 31.441 18.897 31.441 19.2477C31.441 19.5796 31.5252 19.852 31.6936 20.065C31.862 20.2716 32.0699 20.4376 32.3173 20.5629C32.57 20.6819 32.8252 20.7821 33.0831 20.8635L35.12 21.5399C35.3989 21.6275 35.7121 21.7465 36.0595 21.8968C36.4069 22.0471 36.7411 22.2569 37.0621 22.5262C37.3832 22.7955 37.6464 23.1494 37.8516 23.5878C38.0622 24.0262 38.1674 24.5836 38.1674 25.2599C38.1674 25.9614 38.0437 26.5782 37.7964 27.1106C37.5543 27.6367 37.2253 28.075 36.8095 28.4258C36.3937 28.7765 35.9174 29.0395 35.3805 29.2149C34.8489 29.3902 34.291 29.4779 33.7068 29.4779Z" fill="#0D0D0D"/>
<defs>
<clipPath id="clip0_2077_5426">
<rect width="25.2329" height="30" fill="white" transform="translate(-1 7)"/>
</clipPath>
</defs>
</svg>
